<svg width="149" height="52" viewBox="0 0 149 52" fill="none" xmlns="http://www.w3.org/2000/svg">
<g clip-path="url(#clip0_7942_148724)">
<path fill-rule="evenodd" clip-rule="evenodd" d="M29.432 30.4444C29.1166 30.5952 29.1442 30.9735 29.4189 31.0648H29.4175L38.0576 33.8277C38.0576 33.8277 36.1574 38.5024 30.5587 38.5285C26.9649 38.5444 23.7287 35.3105 23.7287 35.3105C23.2136 35.3105 23.2169 35.9517 23.2213 36.7828L23.246 42.0001C20.113 42.0146 10.0612 37.0007 10.0002 23.878C9.96529 16.3796 14.824 10.0378 22.9087 10.0001C30.1764 9.96681 34.6687 15.6374 34.6978 21.7559C34.6978 21.7559 35.0671 27.7773 29.432 30.4444ZM17.7433 21.924C17.7564 24.7753 20.0854 27.0743 22.9436 27.0612C25.8033 27.0482 28.1091 24.726 28.096 21.8762C28.0829 19.025 25.7539 16.726 22.8956 16.739C20.036 16.7521 17.7302 19.0743 17.7433 21.924Z" fill="white"/>
<path d="M101.048 15.0533C101.048 13.8632 102.014 12.8993 103.208 12.8993C104.401 12.8993 105.368 13.8632 105.368 15.0533C105.368 16.2433 104.401 17.2073 103.208 17.2073C102.014 17.2073 101.048 16.2433 101.048 15.0533Z" fill="white"/>
<path fill-rule="evenodd" clip-rule="evenodd" d="M119.531 14.1256V21.1196C118.996 20.2658 117.416 18.7699 114.606 18.7699C110.617 18.7699 107.216 21.7864 107.216 26.5379C107.216 30.8083 110.134 34.3321 114.658 34.3321C117.657 34.3321 119.049 32.8637 119.691 31.7693V33.8784H123.038V14.1256H119.531ZM118.488 29.7153C117.657 30.543 116.506 31.0504 115.221 31.0504C112.517 31.0504 110.723 29.021 110.723 26.5394V26.5133C110.723 24.2172 112.383 22.0284 115.247 22.0284C116.505 22.0284 117.63 22.5097 118.432 23.3098C119.236 24.0839 119.745 25.1783 119.745 26.4597C119.799 27.7411 119.316 28.8891 118.486 29.7168L118.488 29.7153Z" fill="white"/>
<path fill-rule="evenodd" clip-rule="evenodd" d="M86.6401 21.3588C87.6853 19.892 89.3977 18.7701 91.8339 18.7699C96.9741 18.7703 99.143 23.1216 99.143 26.6713C99.143 30.8358 96.1714 34.3321 91.8608 34.3321C88.9953 34.3321 87.4426 32.8652 86.8538 31.9302V39.004H83.3472V19.2236H86.6401V21.3588ZM91.1644 31.075C93.8409 31.075 95.6349 28.9659 95.6349 26.564V26.538C95.6349 24.4289 94.1084 22.027 91.1368 22.027C89.853 22.027 88.7554 22.5343 87.9514 23.362C87.1766 24.1622 86.6939 25.3377 86.6939 26.5916C86.6939 27.8454 87.1766 28.9674 87.9791 29.7675C88.7816 30.5677 89.9068 31.075 91.1644 31.075Z" fill="white"/>
<path fill-rule="evenodd" clip-rule="evenodd" d="M76.7802 21.3602C76.1376 20.1861 74.505 18.7713 71.8271 18.7713C67.704 18.7713 64.3573 21.9212 64.3573 26.5394C64.3573 30.6764 67.1152 34.3336 71.8271 34.3336C73.8886 34.3336 75.844 33.4798 76.7802 31.7708V33.8799H80.2883V19.2236H76.7802V21.3602ZM76.8064 26.6728C76.7526 27.3932 76.5927 28.0875 76.2438 28.7282C75.5736 30.0632 74.2898 31.0779 72.3344 31.0779C69.1753 31.0779 67.8639 28.4354 67.8639 26.6206V26.5945C67.8639 24.326 69.4704 22.0299 72.3083 22.0299C74.4236 22.0299 75.7887 23.2316 76.4052 24.6188C76.7003 25.2595 76.834 25.9799 76.8064 26.6742V26.6728Z" fill="white"/>
<path d="M104.963 19.2236H101.455V33.8784H104.963V19.2236Z" fill="white"/>
<path fill-rule="evenodd" clip-rule="evenodd" d="M62.8032 20.7448C62.8028 16.4706 60.1365 14.1256 55.1589 14.1256H48.2794V33.8784H52.2687V26.9554H52.417C52.8735 26.9554 53.157 27.3743 53.157 27.3743C53.157 27.3743 55.8291 30.4387 56.7974 31.5577C58.3617 33.3653 59.5451 34.0886 61.4322 34.0886C62.3597 34.0886 63.2655 33.7842 63.9095 32.9927L57.0998 26.767C60.4623 26.2278 62.8029 24.4639 62.8032 20.7448ZM52.2687 17.0638H54.0395C57.7613 17.0638 58.9752 18.2234 58.9752 20.634C58.9752 23.2345 56.9748 24.1752 54.0395 24.1752L52.2687 24.1651V17.0638Z" fill="white"/>
</g>
<g clip-path="url(#clip1_7942_148724)">
<path d="M101.009 15.0533C101.009 13.8632 101.976 12.8993 103.17 12.8993C104.363 12.8993 105.33 13.8632 105.33 15.0533C105.33 16.2433 104.363 17.2073 103.17 17.2073C101.976 17.2073 101.009 16.2433 101.009 15.0533Z" fill="white"/>
<path fill-rule="evenodd" clip-rule="evenodd" d="M119.493 14.1256V21.1196C118.958 20.2658 117.378 18.7699 114.568 18.7699C110.579 18.7699 107.178 21.7864 107.178 26.5379C107.178 30.8083 110.096 34.3321 114.62 34.3321C117.619 34.3321 119.011 32.8637 119.653 31.7693V33.8784H123V14.1256H119.493ZM118.45 29.7153C117.619 30.543 116.468 31.0504 115.183 31.0504C112.479 31.0504 110.685 29.021 110.685 26.5394V26.5133C110.685 24.2172 112.345 22.0284 115.209 22.0284C116.467 22.0284 117.592 22.5097 118.394 23.3098C119.198 24.0839 119.707 25.1783 119.707 26.4597C119.761 27.7411 119.278 28.8891 118.448 29.7168L118.45 29.7153Z" fill="white"/>
<path fill-rule="evenodd" clip-rule="evenodd" d="M86.602 21.3588C87.6472 19.892 89.3596 18.7701 91.7958 18.7699C96.936 18.7703 99.1049 23.1216 99.1049 26.6713C99.1049 30.8358 96.1333 34.3321 91.8227 34.3321C88.9572 34.3321 87.4045 32.8652 86.8157 31.9302V39.004H83.3091V19.2236H86.602V21.3588ZM91.1263 31.075C93.8028 31.075 95.5968 28.9659 95.5968 26.564V26.538C95.5968 24.4289 94.0703 22.027 91.0987 22.027C89.815 22.027 88.7173 22.5343 87.9134 23.362C87.1385 24.1622 86.6558 25.3377 86.6558 26.5916C86.6558 27.8454 87.1385 28.9674 87.941 29.7675C88.7435 30.5677 89.8688 31.075 91.1263 31.075Z" fill="white"/>
<path fill-rule="evenodd" clip-rule="evenodd" d="M76.7422 21.3602C76.0996 20.1861 74.4669 18.7713 71.789 18.7713C67.6659 18.7713 64.3192 21.9212 64.3192 26.5394C64.3192 30.6764 67.0771 34.3336 71.789 34.3336C73.8505 34.3336 75.8059 33.4798 76.7422 31.7708V33.8799H80.2502V19.2236H76.7422V21.3602ZM76.7683 26.6728C76.7145 27.3932 76.5546 28.0875 76.2057 28.7282C75.5355 30.0632 74.2517 31.0779 72.2964 31.0779C69.1372 31.0779 67.8258 28.4354 67.8258 26.6206V26.5945C67.8258 24.326 69.4323 22.0299 72.2702 22.0299C74.3855 22.0299 75.7506 23.2316 76.3671 24.6188C76.6622 25.2595 76.7959 25.9799 76.7683 26.6742V26.6728Z" fill="white"/>
<path d="M104.925 19.2236H101.416V33.8784H104.925V19.2236Z" fill="white"/>
<path fill-rule="evenodd" clip-rule="evenodd" d="M62.7651 20.7448C62.7647 16.4706 60.0984 14.1256 55.1208 14.1256H48.2413V33.8784H52.2306V26.9554H52.3789C52.8354 26.9554 53.1189 27.3743 53.1189 27.3743C53.1189 27.3743 55.7911 30.4387 56.7593 31.5577C58.3236 33.3653 59.507 34.0886 61.3941 34.0886C62.3216 34.0886 63.2274 33.7842 63.8714 32.9927L57.0617 26.767C60.4242 26.2278 62.7648 24.4639 62.7651 20.7448ZM52.2306 17.0638H54.0014C57.7232 17.0638 58.9371 18.2234 58.9371 20.634C58.9371 23.2345 56.9367 24.1752 54.0014 24.1752L52.2306 24.1651V17.0638Z" fill="white"/>
</g>
<path d="M130.982 23H129.294L132.366 14.2727H134.318L137.395 23H135.707L133.376 16.0625H133.308L130.982 23ZM131.037 19.5781H135.639V20.848H131.037V19.5781ZM138.424 23V14.2727H141.697C142.368 14.2727 142.93 14.3977 143.385 14.6477C143.842 14.8977 144.187 15.2415 144.42 15.679C144.656 16.1136 144.774 16.608 144.774 17.1619C144.774 17.7216 144.656 18.2187 144.42 18.6534C144.184 19.0881 143.836 19.4304 143.376 19.6804C142.916 19.9276 142.349 20.0511 141.676 20.0511H139.507V18.7514H141.463C141.855 18.7514 142.176 18.6832 142.426 18.5469C142.676 18.4105 142.86 18.223 142.98 17.9844C143.102 17.7457 143.163 17.4716 143.163 17.1619C143.163 16.8523 143.102 16.5795 142.98 16.3438C142.86 16.108 142.674 15.9247 142.422 15.794C142.172 15.6605 141.849 15.5938 141.454 15.5938H140.005V23H138.424ZM147.608 14.2727V23H146.027V14.2727H147.608Z" fill="white"/>
<defs>
<clipPath id="clip0_7942_148724">
<rect width="46" height="52" fill="white"/>
</clipPath>
<clipPath id="clip1_7942_148724">
<rect width="85" height="52" fill="white" transform="translate(48)"/>
</clipPath>
</defs>
</svg>
